<svg xmlns="http://www.w3.org/2000/svg" width="1600" height="681" viewBox="0 0 1600 681" version="1.1"><path d="M 183.716 83.090 C 180.535 83.556, 175.865 84.851, 173.339 85.968 C 170.813 87.086, 168.015 88.002, 167.123 88.004 C 163.885 88.011, 151.370 99.695, 144.634 108.998 C 138.718 117.170, 136.986 122.779, 136.291 136.011 C 135.330 154.313, 137.757 165.504, 145.614 179 C 149.083 184.960, 150.351 186.542, 158.528 195.115 C 167.184 204.190, 173.120 208.056, 187.500 213.984 C 188.600 214.437, 193.550 215.336, 198.500 215.981 C 203.450 216.626, 208.377 217.326, 209.448 217.535 C 213.844 218.395, 214 217.343, 214 186.878 L 214 158 276 158 L 338 158 338 120 L 338 82 263.750 82.122 C 222.912 82.189, 186.897 82.625, 183.716 83.090 M 440.500 83.053 C 433.808 84.136, 422.879 88.153, 417.704 91.431 C 415.392 92.896, 411.025 97.011, 408 100.575 C 398.639 111.603, 395 118.743, 392.505 130.973 C 391.057 138.076, 390.992 140.412, 392.037 147.858 C 394.492 165.353, 401.250 180.382, 411.915 192.063 C 420.089 201.014, 433.011 210.125, 442.500 213.626 C 446.931 215.260, 467.539 217.741, 469.250 216.845 C 470.855 216.005, 471 213.535, 471 186.973 L 471 158.015 532.250 157.758 L 593.500 157.500 593.500 120 L 593.500 82.500 519.500 82.372 C 478.800 82.301, 443.250 82.607, 440.500 83.053 M 1099.500 223.471 C 1098.950 223.643, 1095.800 224.567, 1092.500 225.524 C 1084.511 227.842, 1076.552 231.545, 1070.748 235.644 C 1068.134 237.490, 1065.600 239, 1065.116 239 C 1064.633 239, 1063.026 240.588, 1061.546 242.529 C 1060.065 244.470, 1058.072 246.833, 1057.116 247.779 C 1054.867 250.007, 1048.969 259.126, 1045.646 265.514 C 1043.007 270.586, 1040.568 279.572, 1039.477 288.238 L 1038.881 292.976 1000.691 293.238 L 962.500 293.500 962.247 449.761 L 961.994 606.023 1001.747 605.761 L 1041.500 605.500 1041.753 450.250 L 1042.006 295 1133 295 L 1223.994 295 1224.247 450.250 L 1224.500 605.500 1263.750 605.762 L 1303 606.023 1302.916 448.762 C 1302.869 362.268, 1302.464 289.025, 1302.015 286 C 1300.160 273.511, 1297.150 265.498, 1290.863 256.320 C 1289.288 254.021, 1288 251.631, 1288 251.010 C 1288 249.630, 1278.076 239, 1276.788 239 C 1276.281 239, 1274.434 237.919, 1272.683 236.599 C 1264.205 230.203, 1258.696 227.775, 1244 223.957 C 1240.892 223.150, 1102.021 222.682, 1099.500 223.471 M 591.645 229.498 C 590.323 230.820, 559.461 231.026, 329.323 231.248 L 68.500 231.500 68.500 268.500 L 68.500 305.500 102.247 305.763 L 135.993 306.027 136.247 453.263 L 136.500 600.500 175 600.500 L 213.500 600.500 213.753 453.250 L 214.007 306 302.500 306 L 390.993 306 391.247 453.250 L 391.500 600.500 431 600.500 L 470.500 600.500 470.753 453.415 L 471.007 306.330 562.669 305.665 C 613.083 305.299, 693.856 305, 742.165 305 L 830 305 830 343.966 L 830 382.933 720.750 383.216 C 639.997 383.426, 610.848 383.805, 609 384.669 C 607.625 385.312, 602.632 387.017, 597.904 388.459 C 593.177 389.900, 588.293 391.849, 587.051 392.790 C 572.216 404.028, 564.367 412.899, 559.879 423.500 C 553.502 438.559, 553.582 437.722, 553.255 493.500 C 552.968 542.511, 553.040 544.871, 555.090 554 C 556.263 559.225, 558.043 565.075, 559.047 567 C 560.050 568.925, 561.617 572.169, 562.530 574.209 C 564.457 578.517, 574.571 590.814, 577.500 592.410 C 578.600 593.009, 581.631 594.957, 584.236 596.738 C 592.166 602.161, 599.088 604.941, 612.500 608.092 C 614.903 608.657, 659.418 608.926, 724 608.766 L 831.500 608.500 831.763 574.750 L 832.027 541 868.978 541 C 904.925 541, 905.959 540.946, 907.002 538.997 C 907.753 537.593, 907.980 499.797, 907.761 412.747 C 907.420 277.535, 907.730 285.079, 901.996 272.492 C 900.898 270.082, 900 267.667, 900 267.126 C 900 266.585, 899.438 265.545, 898.750 264.815 C 898.063 264.084, 895.758 260.902, 893.628 257.743 C 891.499 254.584, 889.361 252, 888.878 252 C 888.395 252, 888 251.341, 888 250.536 C 888 248.888, 876.570 239, 874.665 239 C 873.988 239, 870.514 237.449, 866.945 235.554 C 862.105 232.984, 857.492 231.585, 848.805 230.054 C 837.479 228.057, 833.774 228, 715.149 228 C 608.101 228, 592.959 228.184, 591.645 229.498 M 632 496 L 632 538 731 538 L 830 538 830 496 L 830 454 731 454 L 632 454 632 496" stroke="none" fill="#fbfbfb" fill-rule="evenodd"/></svg>